<svg id="Calque_1" data-name="Calque 1" xmlns="http://www.w3.org/2000/svg" width="150" height="150" viewBox="0 0 150 150"><defs><style>.cls-1{fill:#00ecae}.cls-2{fill:#1c2e4e}</style></defs><title>baguette-5cols</title><g id="Calque_1-2" data-name="Calque 1-2"><path class="cls-1" d="M99.87 72.93l-13.52-8.35 3.77-15.44a1.92 1.92 0 0 0-1.38-2.35 1.94 1.94 0 0 0-1.74.41L74.88 57.48l-13.52-8.36a1.94 1.94 0 0 0-2.81 2.38l6 14.7-12.1 10.29a1.93 1.93 0 0 0 1.38 3.4l9.8-.73 4.77-.37 1.3-.1.51 1.24L72 84.35l3.7 9a2 2 0 0 0 1.78 1.2h.15a1.94 1.94 0 0 0 1.73-1.47l3.77-15.44L99 76.49a1.93 1.93 0 0 0 .87-3.57zm-18.39 1a1.9 1.9 0 0 0-1.72 1.47l-2.7 11-4.33-10.47a1.91 1.91 0 0 0-1.73-1.2h-.14l-11.35.85 8.68-7.35a1.94 1.94 0 0 0 .55-2.2l-4.31-10.5 9.63 6a1.92 1.92 0 0 0 2.29-.15L85 54l-2.7 11a1.94 1.94 0 0 0 .86 2.11l9.64 6zm-41.6-2.5l-16.52 1.24a1.93 1.93 0 1 0 .14 3.86h.16l16.52-1.23a1.93 1.93 0 0 0-.29-3.85zm80.06 24.82l-14.08-8.7a1.94 1.94 0 0 0-2.07 3.28l14.08 8.7a1.91 1.91 0 0 0 1 .29 1.92 1.92 0 0 0 1-3.57zm-4.29-57.41a1.94 1.94 0 1 0-2.5-3L100.52 46.6a1.93 1.93 0 0 0 2.5 2.95zM59.92 39a1.94 1.94 0 0 0 1.79 1.2 2 2 0 0 0 .73-.14 1.94 1.94 0 0 0 1.06-2.52l-6.27-15.29a1.93 1.93 0 0 0-3.58 1.46z"/><path class="cls-2" d="M60.38 95.8l-1.83-1.13 9.85-15.88-4.76.35-17.33 27.94-4 6.41-8.69 14a1.94 1.94 0 0 0 .62 2.66l5.12 3.16a1.79 1.79 0 0 0 1 .28 1.92 1.92 0 0 0 1.65-.91l8.68-14 4-6.39 4-6.4L72 84.37l-1.81-4.44zM39.78 129L38 127.88l2.69-4.32 1.82 1.12zm4.72-7.57l-1.83-1.14 1.93-3.12 1.83 1.13zm3.94-6.4l-1.83-1.13 1.93-3.12 1.84 1.13zm4-6.4l-1.8-1.17 2-3.12 1.83 1.13zm4-6.4l-1.84-1.14L56.49 98l1.83 1.13zm-11.23-48a1.93 1.93 0 0 0 2-1.92 2 2 0 0 0-.93-1.66L32.11 42a1.93 1.93 0 0 0-2 3.29L44.15 54a1.94 1.94 0 0 0 1.01.24zm44.93 48.24a1.93 1.93 0 0 0-3.62 1.53l6.27 15.31a1.93 1.93 0 0 0 1.79 1.19 1.67 1.67 0 0 0 .73-.14 1.92 1.92 0 0 0 1-2.5zM126.35 65l-16.53 1.23a1.93 1.93 0 0 0 .15 3.86h.14l16.52-1.23a1.94 1.94 0 1 0-.13-3.86zM87.71 18.72a1.94 1.94 0 0 0-2.33 1.42l-3.9 16.08a1.93 1.93 0 0 0 1.38 2.33 2.4 2.4 0 0 0 .46.05 1.91 1.91 0 0 0 1.87-1.47l3.93-16.07a1.94 1.94 0 0 0-1.41-2.34z"/></g></svg>