<svg id="Calque_1" data-name="Calque 1" xmlns="http://www.w3.org/2000/svg" width="150" height="150" viewBox="0 0 150 150"><defs><style>.cls-1{fill:#23ebaf}.cls-2{fill:#fff}.cls-3{fill:none}.cls-4{fill:#1d2f4d}</style></defs><title>cakes-5cols</title><g id="Calque_1-2" data-name="Calque 1-2"><path class="cls-1" d="M144.19 78.5H99.72a1.06 1.06 0 0 1 0-2.12h44.47a1.06 1.06 0 1 1 0 2.12zM140 91.64h-36.09a1.07 1.07 0 1 1 0-2.13H140a1.07 1.07 0 1 1 0 2.13z"/><path class="cls-2" d="M121.13 61.53c-2.19 0-7.82.16-7.82-6.57s6.41-9.22 7.82-9.22a9 9 0 0 1 7.81 9.26c0 6.69-5.62 6.53-7.81 6.53z"/><path class="cls-3" d="M105.25 91.87l1.2 3.43h31.17l3.13-10.23h-37.58l2.08 6.8zm22.48-35.26a8.17 8.17 0 0 0 .15-1.63 8 8 0 0 0-6.75-8.16c-.66 0-6.76 1.88-6.76 8.16a8.19 8.19 0 0 0 .25 2.09 29 29 0 0 1 7.64-1 27.86 27.86 0 0 1 5.47.54zM121 60.47h.29c1.32 0 3.81 0 5.27-1.46a4.47 4.47 0 0 0 .35-.41 25.74 25.74 0 0 0-4.64-.41 27 27 0 0 0-6.58.78c1.48 1.5 3.96 1.5 5.31 1.5z"/><path class="cls-3" d="M121.43 62.6H121c-1.52 0-4.72 0-6.78-2.1a6.58 6.58 0 0 1-.71-.87 18.81 18.81 0 0 0-9.19 7.21c.61 1.36 2.19 4.12 4 4.12 1.24 0 2.1-.93 3-1.91s2-2.16 3.61-2.16 3.15 1.31 4.39 2.47c.78.71 1.75 1.57 2.26 1.57s1.49-.88 2.27-1.57c1.26-1.16 2.7-2.47 4.38-2.47s2.67 1.15 3.63 2.16 1.79 1.91 3 1.91c2 0 3.7-3.32 4.14-4.48a1.71 1.71 0 0 1 .13-.23 18.45 18.45 0 0 0-10.08-7.15 6 6 0 0 1-1.05 1.4c-2 2.03-5 2.1-6.57 2.1z"/><path class="cls-3" d="M134.9 73.1c-2.16 0-3.5-1.42-4.58-2.57-.75-.8-1.41-1.49-2.1-1.49-.86 0-2 1-3 1.91-1.21 1.1-2.35 2.15-3.7 2.15s-2.48-1-3.69-2.15c-1-.9-2.1-1.91-3-1.91-.66 0-1.31.69-2.09 1.48-1.08 1.16-2.43 2.58-4.58 2.58-2.53 0-4.31-2.32-5.28-4.06a20 20 0 0 0-2.23 8.24l1.73 5.66h39.02l1.73-5.65a21.16 21.16 0 0 0-2.62-8.87c-.87 1.73-2.78 4.68-5.61 4.68z"/><path class="cls-4" d="M129.8 57.1a10.94 10.94 0 0 0 .2-2.1c0-7.33-6.28-10.29-8.9-10.29-2.14 0-8.9 3.1-8.9 10.29a9.71 9.71 0 0 0 .36 2.73C101.44 61.88 98.63 73 98.63 77.44a.81.81 0 0 0 .05.31l4.51 14.77 1.46 4.16a1 1 0 0 0 1 .71h32.76a1 1 0 0 0 1-.75l5.78-18.92a1.06 1.06 0 0 0 0-.31c.07-3.81-2.75-16.61-15.39-20.31zM114.37 55c0-6.28 6.1-8.16 6.76-8.16a8 8 0 0 1 6.75 8.16 7.68 7.68 0 0 1-.15 1.65 4.94 4.94 0 0 1-.83 2c-.11.14-.23.28-.35.41-1.46 1.46-4 1.45-5.28 1.45H121c-1.33 0-3.82 0-5.28-1.45a4.39 4.39 0 0 1-1-1.94 8.14 8.14 0 0 1-.25-2.09zm-.87 4.71a5.44 5.44 0 0 0 .7.87c2.09 2.1 5.27 2.1 6.78 2.1h.45c1.57 0 4.6-.07 6.62-2.1a5.77 5.77 0 0 0 1-1.4 18.49 18.49 0 0 1 10.09 7.15 1 1 0 0 0-.13.23c-.44 1.16-2.16 4.48-4.14 4.48-1.24 0-2.1-.93-3-1.91s-2-2.16-3.62-2.16-3.14 1.32-4.39 2.47c-.77.72-1.74 1.57-2.26 1.57s-1.49-.88-2.26-1.57c-1.27-1.15-2.7-2.47-4.39-2.47s-2.67 1.15-3.62 2.16-1.79 1.91-3 1.91c-1.81 0-3.39-2.75-4-4.12a18.7 18.7 0 0 1 9.17-7.23zm24.12 35.65h-31.17l-1.18-3.45-2.1-6.81h37.58zm3.78-12.38h-38.88l-1.73-5.66A20.3 20.3 0 0 1 103 69c1 1.74 2.75 4.06 5.28 4.06 2.16 0 3.5-1.42 4.58-2.58.75-.79 1.4-1.48 2.1-1.48s2 1 3 1.91c1.21 1.1 2.35 2.15 3.69 2.15s2.49-1 3.71-2.15c1-.9 2.09-1.91 2.94-1.91.67 0 1.32.69 2.1 1.49 1.08 1.15 2.42 2.57 4.58 2.57 2.85 0 4.74-2.95 5.61-4.68a21.16 21.16 0 0 1 2.62 8.87z"/><circle class="cls-1" cx="118.45" cy="51.48" r=".9"/><circle class="cls-1" cx="123.81" cy="51.48" r=".9"/><circle class="cls-1" cx="117.55" cy="56.22" r=".9"/><circle class="cls-1" cx="124.7" cy="56.22" r=".9"/><circle class="cls-1" cx="121.31" cy="54.09" r=".9"/><circle class="cls-1" cx="121.31" cy="57.59" r=".9"/><circle class="cls-1" cx="15.95" cy="87.08" r="1.31"/><circle class="cls-1" cx="29.17" cy="87.08" r="1.31"/><circle class="cls-1" cx="42.4" cy="87.08" r="1.31"/><circle class="cls-4" cx="22.72" cy="84.32" r="1.31"/><circle class="cls-4" cx="22.41" cy="91.27" r="1.31"/><circle class="cls-4" cx="35.94" cy="84.32" r="1.31"/><circle class="cls-4" cx="35.63" cy="91.27" r="1.31"/><path class="cls-4" d="M37.57 56.81A19.52 19.52 0 0 1 36 58.63a19 19 0 0 1 9.42 5.76c-.3.78-1.49 3.61-3.42 3.61-1.16 0-2-.85-2.89-1.83S37.15 64 35.59 64s-3.06 1.28-4.3 2.41c-.7.64-1.67 1.53-2.15 1.53s-1.45-.89-2.16-1.53c-1.23-1.1-2.61-2.41-4.29-2.41s-2.62 1.12-3.55 2.09-1.69 1.81-2.88 1.81c-1.9 0-3.08-2.77-3.39-3.55a19.54 19.54 0 0 1 9.54-5.68 22.92 22.92 0 0 1-1.57-1.83C8.37 60.8 5.26 72.84 5.26 77.58a1.13 1.13 0 0 0 0 .32l4.68 15.15 1.5 4.27a1.09 1.09 0 0 0 1.05.73h33.57a1.1 1.1 0 0 0 1-.77L53 77.9a1.13 1.13 0 0 0 .05-.32c.04-3.91-2.82-16.83-15.48-20.77zm-26.22 9.48c.79 1.57 2.37 3.83 4.93 3.83 2.09 0 3.43-1.4 4.48-2.52.72-.77 1.34-1.43 2-1.43.8 0 1.87 1 2.81 1.84 1.19 1.08 2.31 2.09 3.63 2.09s2.45-1 3.63-2.09c.94-.86 2-1.84 2.82-1.84.62 0 1.24.66 2 1.43 1 1.12 2.36 2.52 4.48 2.52 2.54 0 4.12-2.24 4.91-3.8a23.21 23.21 0 0 1 3 6.21c-.58 1.5-2.62 5.41-5.07 5.41-1.53 0-2.59-1.12-3.7-2.31s-2.36-2.51-4.17-2.51S33.46 74.7 32 76c-1 1-2.11 2-2.81 2s-1.8-1-2.79-1.94c-1.48-1.34-3.14-2.88-5.08-2.88s-3 1.28-4.16 2.51S15 78 13.45 78C11 78 9 74.07 8.39 72.57l-.06-.1a21.9 21.9 0 0 1 3.02-6.18zm33.9 29.62h-32L12 92.39l-4.58-15a13.65 13.65 0 0 1 .12-1.57c1.18 1.94 3.17 4.32 5.86 4.32 2.48 0 4.05-1.66 5.3-3 .92-1 1.71-1.81 2.57-1.81 1.08 0 2.43 1.22 3.61 2.3 1.41 1.29 2.74 2.51 4.26 2.51S32 79 33.44 77.66c1.18-1.08 2.52-2.3 3.61-2.3.86 0 1.65.84 2.57 1.81 1.25 1.33 2.82 3 5.3 3 2.68 0 4.66-2.36 5.84-4.31a11.89 11.89 0 0 1 .14 1.58z"/><path class="cls-1" d="M29.17 63.75a1 1 0 0 1-.52-.15c-.41-.24-10.11-5.94-10.11-12.66a5.82 5.82 0 0 1 5.72-6 6.26 6.26 0 0 1 4.93 2.31 6.3 6.3 0 0 1 4.94-2.31 5.79 5.79 0 0 1 5.71 6c0 6.71-9.7 12.42-10.12 12.66a1 1 0 0 1-.55.15zM24.24 47.1a3.67 3.67 0 0 0-3.53 3.84c0 4.67 6.51 9.18 8.46 10.43 2-1.25 8.47-5.76 8.47-10.43a3.67 3.67 0 0 0-3.53-3.84c-1.85 0-3.84 1.23-3.84 3.22a1.1 1.1 0 1 1-2.19.15v-.15c0-1.99-1.99-3.22-3.84-3.22z"/><path class="cls-2" d="M95.38 74.41a15.18 15.18 0 0 1 12 14.92 1.54 1.54 0 0 1-.06.43l-8 26.07a1.46 1.46 0 0 1-1.4 1h-45a1.48 1.48 0 0 1-1.39-1l-2-5.72v-.06l-6.28-20.3a1.54 1.54 0 0 1-.06-.43 15.22 15.22 0 0 1 12.93-15.09"/><path class="cls-1" d="M61.34 118.24a1.54 1.54 0 0 1-1.47-1.09l-8.38-27.44a1.54 1.54 0 0 1 2.95-.9l8.38 27.43a1.58 1.58 0 0 1-1 1.94 1.54 1.54 0 0 1-.48.06zm19.13 0a1.55 1.55 0 0 1-1.47-1.09l-8.38-27.44a1.54 1.54 0 0 1 2.95-.9L82 116.25a1.58 1.58 0 0 1-1 1.93 1.54 1.54 0 0 1-.53.06zm19.08-.16a1.58 1.58 0 0 1-1.48-1.08l-8.34-27.29a1.55 1.55 0 0 1 3-.9l8.27 27.28a1.57 1.57 0 0 1-1 1.92 1.25 1.25 0 0 1-.45.07z"/><path class="cls-3" d="M75.73 69.92a12.71 12.71 0 0 1-8.9-3.63 20.15 20.15 0 0 0-9 9.19 1.53 1.53 0 0 1-1.23.86A13 13 0 0 0 44.94 89l6.47 21.15 1.74 5h45.21l8-26.12a12.92 12.92 0 0 0-10.87-12.56 1.53 1.53 0 0 1-1.14-.86 20.28 20.28 0 0 0-9.5-9.42 12.71 12.71 0 0 1-9.12 3.73zM70.08 65a9.54 9.54 0 0 0 11.48-.13m2.3-2.5a9.6 9.6 0 0 0 1.51-5.18c0-3.19-2.7-6.6-4.78-6.92C78.9 50 77.9 52 77.38 53.73a1.59 1.59 0 0 1-2 .94 1.61 1.61 0 0 1-.94-.94c-.52-1.62-1.42-3.48-3-3.48a1.84 1.84 0 0 0-.33 0c-2.2.33-5 3.66-5 6.91a9.59 9.59 0 0 0 1.63 5.34"/><path class="cls-4" d="M109.36 89.71a.14.14 0 0 1 0-.1v-.06a1.41 1.41 0 0 0 0-.29 16 16 0 0 0-12.65-15.7 23.43 23.43 0 0 0-10-10 12.72 12.72 0 0 0 1.73-6.4c0-4.55-3.6-9.39-7.41-9.94a4.94 4.94 0 0 0-4.19 1.32 16.11 16.11 0 0 0-15.47-11.83 1.57 1.57 0 0 0 0 3.09 13 13 0 0 1 11.86 7.7 5.21 5.21 0 0 0-2.62-.28c-3.91.6-7.61 5.44-7.61 10a12.65 12.65 0 0 0 1.88 6.64 23.23 23.23 0 0 0-9.42 9.55 16 16 0 0 0-13.61 15.84 1.41 1.41 0 0 0 0 .28v.17l6.55 21.4v.07l2.09 6a1.57 1.57 0 0 0 1.46 1h47.56a1.52 1.52 0 0 0 1.47-1.09l4.81-15.8zm-6.5 1.1h2.93l-1.47 4.8zM71.08 50.28a1.84 1.84 0 0 1 .33 0c1.57 0 2.52 1.86 3 3.48a1.58 1.58 0 0 0 2 .94 1.6 1.6 0 0 0 .95-.94C77.9 52 78.9 50 80.59 50.27c2.09.32 4.78 3.73 4.78 6.92a9.64 9.64 0 1 1-19.28 0c0-3.26 2.79-6.58 4.99-6.91zm-4.23 16a12.68 12.68 0 0 0 17.94-.18 20.37 20.37 0 0 1 8.7 7.9 5.39 5.39 0 0 1-9.69-.85 1.53 1.53 0 0 0-1.44-1 1.56 1.56 0 0 0-1.46 1 5.4 5.4 0 0 1-10.11 0 1.57 1.57 0 0 0-2.89 0 5.4 5.4 0 0 1-9.43 1.25 20.13 20.13 0 0 1 8.38-8.11zM56.11 76.42A8.47 8.47 0 0 0 68 78a8.8 8.8 0 0 0 1.36-1.3 8.45 8.45 0 0 0 11.91 1.09 8 8 0 0 0 1.09-1.09 8.47 8.47 0 0 0 11.92 1.09 9 9 0 0 0 1.28-1.33 12.92 12.92 0 0 1 10.71 11.26H45.05a12.94 12.94 0 0 1 11.06-11.3zm15.94 38.75l-7.44-24.35H80.5l7.5 24.35zm-20.64-5l-5.92-19.35h15.88l7.45 24.35H53.15zm47 5h-7.23l-7.45-24.35h15.9l3.09 10.09z"/></g></svg>