<svg id="Calque_1" data-name="Calque 1" xmlns="http://www.w3.org/2000/svg" width="150" height="150" viewBox="0 0 150 150"><defs><style>.cls-1{fill:#1d2f4d}.cls-2{fill:#23ebaf}</style></defs><title>cerise-5cols</title><path class="cls-1" d="M98.81 82.43a18.82 18.82 0 0 1-5.63-.74c-7.48-2.45-17-5.15-24-4.27-6.57.82-13.75 1.25-17.25-1.84a6.21 6.21 0 0 1-2.1-4.87 5.47 5.47 0 0 1 1.62-4c2.87-2.85 8.89-2.8 14.2-2.77 1.7 0 3.3 0 4.59-.07 6.93-.47 9.6-2 10.21-5.87 0-.06 0-.18-.14-.41C78.41 55 67.62 53.37 63 52.66c-2.11-.32-3.33-.51-4-.7-1.11.36-4.26 3.58-6.37 5.74-3.28 3.35-6.66 6.81-9.47 8.2-5.32 2.65-9.88-2.32-11.55-5.32a1.59 1.59 0 0 1 .1-1.7c.33-.45 8.17-11.18 13.25-16.82 4.44-4.93 5.35-5.32 7.35-5.73.24 0 .5-.1.82-.19 7.08-1.91 19.78-.74 28.72.31 4.74.55 14.28 6.47 22.7 11.69 4.69 2.9 10 6.2 11.43 6.48a1.58 1.58 0 0 1-.62 3.1c-1.89-.38-5.78-2.75-12.47-6.9-7.35-4.54-17.39-10.76-21.43-11.23-5-.59-20.21-2.37-27.53-.4-.38.1-.71.17-1 .23-1.15.24-1.67.34-5.63 4.75-4.16 4.61-10.42 13-12.42 15.7 1.11 1.59 3.79 4.73 6.86 3.2 2.32-1.15 5.66-4.57 8.61-7.58 4.85-5 7.27-7.3 9.43-6.6.43.15 2.09.4 3.7.65 8.45 1.28 16.91 2.82 19.35 6.15a3.67 3.67 0 0 1 .71 2.77c-1.07 6.78-6.93 8.11-13.11 8.53-1.41.1-3.07.09-4.83.08-4.46 0-10-.08-11.95 1.85a2.38 2.38 0 0 0-.65 1.79 3.09 3.09 0 0 0 1 2.5c2.9 2.56 11.53 1.49 14.77 1.08 7.64-1 17.13 1.69 25.41 4.4 6.57 2.15 20.88-2.19 21-2.24a1.59 1.59 0 0 1 2 1 1.57 1.57 0 0 1-1 2c-.56.17-9.79 2.98-17.37 2.98z"/><path class="cls-2" d="M134.18 88.65h-17.87a1.74 1.74 0 0 1-1.74-1.74v-42a1.74 1.74 0 0 1 1.74-1.74h17.87a1.74 1.74 0 0 1 1.74 1.74v42a1.74 1.74 0 0 1-1.74 1.74zm-16.13-3.48h14.39V46.62h-14.39z"/><path class="cls-2" d="M125.25 62.38a1.74 1.74 0 0 1-1.74-1.74v-7.81a1.74 1.74 0 0 1 3.48 0v7.8a1.73 1.73 0 0 1-1.73 1.75z"/><path class="cls-1" d="M49.5 81.72a8.09 8.09 0 0 0-6 1.41c.94-3.84 2.09-8.08 3-11.38 2.67-7 7.17-7 7.41-7a1.74 1.74 0 0 0 .13-3.48c-.29 0-7.21-.21-10.83 9.35a.57.57 0 0 0 0 .14c-.36 1.25-2.63 9.27-4 15.45-3.13-4.66-7.13-4.74-9-4.45-6.85 1-13.32 9.58-13.32 17.59a22.76 22.76 0 0 0 45.51 0c.03-8.07-6.26-16.62-12.9-17.63zm-10 37a19.27 19.27 0 0 1-19.09-19.4c0-6.23 5.22-13.37 10.35-14.15a5.66 5.66 0 0 1 .82-.06c3.57 0 5.57 3.72 6.66 7.08v.46a1.74 1.74 0 0 0 1.76 1.7 1.73 1.73 0 0 0 1.69-1.78v-.33c1.15-3.61 3.34-7.67 7.25-7.07 4.85.73 10 8 10 14.15v.28a19.27 19.27 0 0 1-19.4 19.13z"/></svg>