<svg xmlns="http://www.w3.org/2000/svg" xmlns:xlink="http://www.w3.org/1999/xlink" width="500" zoomAndPan="magnify" viewBox="0 0 375 374.999991" height="500" preserveAspectRatio="xMidYMid meet" version="1.0"><defs><g/><clipPath id="e19e145143"><path d="M 159 130 L 225 130 L 225 192 L 159 192 Z M 159 130 " clip-rule="nonzero"/></clipPath><clipPath id="6de9617671"><path d="M 155.59375 187.964844 L 249.257812 100.355469 L 262.578125 114.597656 L 168.914062 202.203125 Z M 155.59375 187.964844 " clip-rule="nonzero"/></clipPath><clipPath id="34339e7ef7"><path d="M 155.59375 187.964844 L 249.257812 100.355469 L 262.578125 114.597656 L 168.914062 202.203125 Z M 155.59375 187.964844 " clip-rule="nonzero"/></clipPath><clipPath id="92478b83e5"><path d="M 155.59375 187.964844 L 249.257812 100.355469 L 262.578125 114.597656 L 168.914062 202.203125 Z M 155.59375 187.964844 " clip-rule="nonzero"/></clipPath><clipPath id="370c50d751"><path d="M 156 127 L 228 127 L 228 195 L 156 195 Z M 156 127 " clip-rule="nonzero"/></clipPath><clipPath id="af140a0bf2"><path d="M 155.59375 187.964844 L 249.257812 100.355469 L 262.578125 114.597656 L 168.914062 202.203125 Z M 155.59375 187.964844 " clip-rule="nonzero"/></clipPath><clipPath id="e0a3ba4a34"><path d="M 155.59375 187.964844 L 249.257812 100.355469 L 262.578125 114.597656 L 168.914062 202.203125 Z M 155.59375 187.964844 " clip-rule="nonzero"/></clipPath><clipPath id="2e842d197d"><path d="M 155.59375 187.964844 L 249.257812 100.355469 L 262.578125 114.597656 L 168.914062 202.203125 Z M 155.59375 187.964844 " clip-rule="nonzero"/></clipPath><clipPath id="e0793d4ac2"><path d="M 217 103 L 254 103 L 254 136 L 217 136 Z M 217 103 " clip-rule="nonzero"/></clipPath><clipPath id="936106b329"><path d="M 155.59375 187.964844 L 249.257812 100.355469 L 262.578125 114.597656 L 168.914062 202.203125 Z M 155.59375 187.964844 " clip-rule="nonzero"/></clipPath><clipPath id="2c405393f7"><path d="M 155.59375 187.964844 L 249.257812 100.355469 L 262.578125 114.597656 L 168.914062 202.203125 Z M 155.59375 187.964844 " clip-rule="nonzero"/></clipPath><clipPath id="7275684839"><path d="M 155.59375 187.964844 L 249.257812 100.355469 L 262.578125 114.597656 L 168.914062 202.203125 Z M 155.59375 187.964844 " clip-rule="nonzero"/></clipPath><clipPath id="a50569cefa"><path d="M 214 100 L 257 100 L 257 139 L 214 139 Z M 214 100 " clip-rule="nonzero"/></clipPath><clipPath id="e0f7026ccd"><path d="M 155.59375 187.964844 L 249.257812 100.355469 L 262.578125 114.597656 L 168.914062 202.203125 Z M 155.59375 187.964844 " clip-rule="nonzero"/></clipPath><clipPath id="7dd6b51034"><path d="M 155.59375 187.964844 L 249.257812 100.355469 L 262.578125 114.597656 L 168.914062 202.203125 Z M 155.59375 187.964844 " clip-rule="nonzero"/></clipPath><clipPath id="87ade19706"><path d="M 155.59375 187.964844 L 249.257812 100.355469 L 262.578125 114.597656 L 168.914062 202.203125 Z M 155.59375 187.964844 " clip-rule="nonzero"/></clipPath><clipPath id="39bfa2b5ec"><path d="M 160 146 L 225 146 L 225 192 L 160 192 Z M 160 146 " clip-rule="nonzero"/></clipPath><clipPath id="05770dafc1"><path d="M 155.59375 187.964844 L 249.257812 100.355469 L 262.578125 114.597656 L 168.914062 202.203125 Z M 155.59375 187.964844 " clip-rule="nonzero"/></clipPath><clipPath id="4311dcb5fa"><path d="M 155.59375 187.964844 L 249.257812 100.355469 L 262.578125 114.597656 L 168.914062 202.203125 Z M 155.59375 187.964844 " clip-rule="nonzero"/></clipPath><clipPath id="7d09d4a394"><path d="M 155.59375 187.964844 L 249.257812 100.355469 L 262.578125 114.597656 L 168.914062 202.203125 Z M 155.59375 187.964844 " clip-rule="nonzero"/></clipPath><clipPath id="9ddb597f66"><path d="M 156 142 L 228 142 L 228 195 L 156 195 Z M 156 142 " clip-rule="nonzero"/></clipPath><clipPath id="6c94cfe9e8"><path d="M 155.59375 187.964844 L 249.257812 100.355469 L 262.578125 114.597656 L 168.914062 202.203125 Z M 155.59375 187.964844 " clip-rule="nonzero"/></clipPath><clipPath id="b0b77367cf"><path d="M 155.59375 187.964844 L 249.257812 100.355469 L 262.578125 114.597656 L 168.914062 202.203125 Z M 155.59375 187.964844 " clip-rule="nonzero"/></clipPath><clipPath id="92ec4a8c3e"><path d="M 155.59375 187.964844 L 249.257812 100.355469 L 262.578125 114.597656 L 168.914062 202.203125 Z M 155.59375 187.964844 " clip-rule="nonzero"/></clipPath></defs><g clip-path="url(#e19e145143)"><g clip-path="url(#6de9617671)"><g clip-path="url(#34339e7ef7)"><g clip-path="url(#92478b83e5)"><path fill="#5d5e61" d="M 159.898438 191.464844 C 163.441406 185.550781 167.503906 180.019531 172.082031 174.875 C 174.648438 171.992188 177.875 168.917969 184.324219 162.773438 C 191.265625 156.15625 190.925781 156.726562 198.25 149.746094 C 204.257812 144.019531 209.371094 138.972656 213.382812 134.945312 C 215.113281 133.203125 216.570312 131.726562 217.636719 130.640625 L 222.171875 135.492188 C 221.496094 136.070312 220.980469 136.765625 220.628906 137.585938 C 219.382812 140.542969 220.855469 144.585938 224.207031 147.878906 C 222.804688 149.601562 220.78125 152.003906 218.230469 154.769531 C 216.390625 156.765625 209.976562 163.617188 199.21875 172.226562 C 192.164062 177.875 188.644531 180.707031 183.839844 183.363281 C 177.621094 186.796875 171.03125 189.28125 164.066406 190.816406 Z M 159.898438 191.464844 " fill-opacity="1" fill-rule="nonzero"/></g></g></g></g><g clip-path="url(#370c50d751)"><g clip-path="url(#af140a0bf2)"><g clip-path="url(#e0a3ba4a34)"><g clip-path="url(#2e842d197d)"><path stroke-linecap="butt" transform="matrix(0.169835, -0.158851, 0.162048, 0.173253, 16.299129, 209.003849)" fill="none" stroke-linejoin="miter" d="M 502.505713 359.500187 C 531.005085 351.495083 560.011586 346.164509 589.501475 343.509243 C 606.029662 342.02417 625.193375 341.850759 663.497058 341.504715 C 704.73491 341.120804 701.992326 341.897993 745.499561 341.497992 C 781.1892 341.167679 812.072928 340.354048 836.502266 339.507199 C 847.05457 339.126579 855.967856 338.77635 862.506902 338.503896 L 862.498607 366.499035 C 858.678035 366.332939 855.016212 366.98879 851.502457 368.501889 C 838.902803 374.017309 831.651697 390.70459 832.504553 410.493244 C 823.040125 411.758574 809.628538 413.327953 793.493657 414.497243 C 781.852009 415.344596 741.581854 417.96855 682.506272 413.496251 C 643.758326 410.571558 624.385939 409.155759 601.493767 403.498173 C 571.877191 396.161919 543.883467 384.834816 517.500327 369.505616 Z M 502.505713 359.500187 " stroke="#000000" stroke-width="1" stroke-opacity="1" stroke-miterlimit="10"/></g></g></g></g><g clip-path="url(#e0793d4ac2)"><g clip-path="url(#936106b329)"><g clip-path="url(#2c405393f7)"><g clip-path="url(#7275684839)"><path fill="#231f20" d="M 217.636719 130.640625 L 222.171875 135.492188 C 222.808594 135.125 223.820312 134.53125 225.035156 133.789062 C 233.875 128.375 238.292969 125.667969 240.929688 121.84375 C 242.429688 119.675781 243 117.984375 245.199219 116.878906 C 247.515625 115.710938 248.722656 116.660156 250.546875 115.445312 C 252.902344 113.898438 254.03125 110.242188 253.066406 107.246094 C 252.578125 105.75 251.25 103.378906 249.175781 103.085938 C 248.558594 103 247.6875 103.074219 245.488281 104.589844 C 242.777344 106.457031 241.324219 108.261719 239.542969 110.148438 C 237.945312 111.84375 236.148438 113.328125 234.449219 114.914062 Z M 217.636719 130.640625 " fill-opacity="1" fill-rule="nonzero"/></g></g></g></g><g clip-path="url(#a50569cefa)"><g clip-path="url(#e0f7026ccd)"><g clip-path="url(#7dd6b51034)"><g clip-path="url(#87ade19706)"><path stroke-linecap="butt" transform="matrix(0.169835, -0.158851, 0.162048, 0.173253, 16.299129, 209.003849)" fill="none" stroke-linejoin="miter" d="M 862.506902 338.503896 L 862.498607 366.499035 C 865.576877 367.202045 870.498386 368.287374 876.493857 369.500622 C 920.159762 378.287246 941.986581 382.674934 961.500945 378.494099 C 972.580163 376.139025 979.339733 372.574057 989.493842 375.503422 C 1000.19958 378.577816 1001.202058 384.975758 1010.499735 386.488582 C 1022.441178 388.50895 1036.72673 380.50346 1042.497498 368.501358 C 1045.358743 362.489448 1048.152677 351.365408 1042.49901 344.49073 C 1040.813121 342.448962 1037.859364 340.169128 1026.500433 338.502477 C 1012.501702 336.444651 1002.636827 337.816298 991.500484 338.495648 C 981.502982 339.114393 971.49944 338.510089 961.504259 338.499659 Z M 862.506902 338.503896 " stroke="#000000" stroke-width="1" stroke-opacity="1" stroke-miterlimit="10"/></g></g></g></g><g clip-path="url(#39bfa2b5ec)"><g clip-path="url(#05770dafc1)"><g clip-path="url(#4311dcb5fa)"><g clip-path="url(#7d09d4a394)"><path fill="#a3a5a8" d="M 160.066406 191.308594 C 159.929688 190.949219 162.148438 189.757812 163.941406 188.980469 C 167.117188 187.613281 168.84375 187.597656 170.964844 186.960938 C 174.292969 185.960938 174.285156 184.71875 178.894531 181.816406 C 184.335938 178.394531 185.183594 179.605469 190.316406 176.328125 C 192.710938 174.804688 191.765625 175.023438 198.105469 170.019531 C 203.660156 165.632812 204.441406 165.421875 207.246094 162.769531 C 208.921875 161.1875 208.140625 161.738281 213.039062 156.703125 C 215.6875 153.980469 216.90625 152.796875 218.828125 150.640625 C 220.464844 148.785156 221.75 147.210938 222.585938 146.148438 L 224.207031 147.878906 C 222.96875 149.46875 221.308594 151.511719 219.25 153.816406 C 218.683594 154.449219 215.941406 157.511719 211.933594 161.3125 C 209.085938 164.011719 206.792969 165.957031 204.976562 167.492188 C 203.882812 168.417969 203.648438 168.59375 199.558594 171.910156 C 192.296875 177.796875 191.25 178.6875 188.898438 180.257812 C 186.851562 181.625 185.070312 182.671875 183.839844 183.363281 C 181.660156 184.597656 179.417969 185.722656 177.117188 186.726562 C 174.875 187.695312 172.585938 188.539062 170.25 189.253906 C 167.597656 190.066406 165.878906 190.417969 163.230469 190.945312 C 160.585938 191.472656 160.125 191.457031 160.066406 191.308594 Z M 160.066406 191.308594 " fill-opacity="1" fill-rule="nonzero"/></g></g></g></g><g clip-path="url(#9ddb597f66)"><g clip-path="url(#6c94cfe9e8)"><g clip-path="url(#b0b77367cf)"><g clip-path="url(#92ec4a8c3e)"><path stroke-linecap="butt" transform="matrix(0.169835, -0.158851, 0.162048, 0.173253, 16.299129, 209.003849)" fill="none" stroke-linejoin="miter" d="M 503.492213 359.502821 C 504.11849 358.00276 514.586378 360.723797 522.500768 363.49353 C 536.490643 368.429188 541.958952 373.352743 550.490763 377.500248 C 563.880484 384.00501 567.504838 380.158296 590.506509 384.495848 C 617.64735 389.629808 616.75239 395.798657 642.49951 400.488974 C 654.494786 402.693978 650.883382 400.645386 685.493011 403.495941 C 715.823822 405.985713 718.897024 407.585937 735.496558 407.496523 C 745.406658 407.451489 741.335174 406.897514 771.509745 405.501315 C 787.825104 404.745512 795.12946 404.611088 807.499188 403.506886 C 818.089823 402.507562 826.750184 401.361771 832.496577 400.497835 L 832.504553 410.493244 C 823.945509 411.822115 812.730491 413.33119 799.495356 414.498691 C 795.857642 414.815904 778.249572 416.348001 754.498023 416.508599 C 737.625849 416.618595 724.710293 416.004832 714.496243 415.500623 C 708.341776 415.201281 707.08935 415.067558 684.503013 413.500742 C 644.404924 410.713476 638.500942 410.440878 626.50292 408.503913 C 616.058467 406.818956 607.389141 404.912749 601.493767 403.498173 C 591.022339 401.021902 580.67591 398.028937 570.501173 394.49445 C 560.613724 391.020451 550.946245 387.026649 541.510209 382.501016 C 530.79361 377.364934 524.363031 373.498097 514.496339 367.495376 C 504.641915 361.503903 503.240201 360.128524 503.492213 359.502821 Z M 503.492213 359.502821 " stroke="#000000" stroke-width="1" stroke-opacity="1" stroke-miterlimit="10"/></g></g></g></g><g fill="#000000" fill-opacity="1"><g transform="translate(117.668101, 163.129166)"><g><path d="M 20.46875 -10.3125 C 20.75 -10.3125 20.890625 -10.082031 20.890625 -9.625 C 20.890625 -9.164062 20.789062 -8.382812 20.59375 -7.28125 C 20.4375 -6.539062 19.585938 -5.476562 18.046875 -4.09375 C 16.179688 -2.445312 14.140625 -1.269531 11.921875 -0.5625 C 10.578125 -0.132812 9.265625 0.078125 7.984375 0.078125 C 6.703125 0.078125 5.535156 -0.460938 4.484375 -1.546875 C 3.429688 -2.628906 2.90625 -3.90625 2.90625 -5.375 C 2.90625 -6.851562 3.203125 -8.382812 3.796875 -9.96875 C 4.390625 -11.5625 5.1875 -13.078125 6.1875 -14.515625 C 7.195312 -15.960938 8.390625 -17.351562 9.765625 -18.6875 C 11.140625 -20.019531 12.566406 -21.171875 14.046875 -22.140625 C 15.535156 -23.117188 17.09375 -23.894531 18.71875 -24.46875 C 20.34375 -25.050781 21.890625 -25.34375 23.359375 -25.34375 C 24.503906 -25.34375 25.484375 -24.925781 26.296875 -24.09375 C 26.722656 -23.644531 26.9375 -23.082031 26.9375 -22.40625 C 26.9375 -21.726562 26.601562 -20.875 25.9375 -19.84375 C 25.28125 -18.8125 24.5 -17.867188 23.59375 -17.015625 C 22.695312 -16.171875 21.769531 -15.453125 20.8125 -14.859375 C 19.851562 -14.273438 19.082031 -13.984375 18.5 -13.984375 C 17.925781 -13.984375 17.429688 -14.160156 17.015625 -14.515625 C 16.609375 -14.878906 16.40625 -15.203125 16.40625 -15.484375 C 16.40625 -15.765625 16.46875 -16.078125 16.59375 -16.421875 C 16.71875 -16.765625 16.875 -16.9375 17.0625 -16.9375 C 17.007812 -16.875 16.984375 -16.816406 16.984375 -16.765625 C 16.984375 -16.617188 17.1875 -16.546875 17.59375 -16.546875 C 18 -16.546875 18.679688 -16.90625 19.640625 -17.625 C 20.597656 -18.34375 21.460938 -19.148438 22.234375 -20.046875 C 23.003906 -20.941406 23.390625 -21.613281 23.390625 -22.0625 C 23.390625 -22.363281 23.179688 -22.515625 22.765625 -22.515625 C 21.660156 -22.515625 20.128906 -22 18.171875 -20.96875 C 16.222656 -19.9375 14.359375 -18.609375 12.578125 -16.984375 C 10.804688 -15.359375 9.257812 -13.425781 7.9375 -11.1875 C 6.625 -8.957031 5.96875 -6.953125 5.96875 -5.171875 C 5.96875 -4.429688 6.164062 -3.835938 6.5625 -3.390625 C 6.957031 -2.941406 7.5625 -2.71875 8.375 -2.71875 C 9.195312 -2.71875 10.164062 -2.953125 11.28125 -3.421875 C 12.40625 -3.898438 13.472656 -4.476562 14.484375 -5.15625 C 15.492188 -5.84375 16.445312 -6.546875 17.34375 -7.265625 C 18.238281 -7.984375 18.953125 -8.613281 19.484375 -9.15625 C 20.023438 -9.695312 20.300781 -10.023438 20.3125 -10.140625 C 20.320312 -10.253906 20.375 -10.3125 20.46875 -10.3125 Z M 20.46875 -10.3125 "/></g></g></g><g fill="#000000" fill-opacity="1"><g transform="translate(138.239198, 163.129166)"><g><path d="M 13.09375 -13.46875 C 13.445312 -13.46875 13.8125 -13.304688 14.1875 -12.984375 C 14.5625 -12.671875 14.75 -12.1875 14.75 -11.53125 C 14.75 -10.875 14.515625 -10.023438 14.046875 -8.984375 C 13.585938 -7.941406 12.957031 -6.878906 12.15625 -5.796875 C 11.351562 -4.722656 10.472656 -3.710938 9.515625 -2.765625 C 8.554688 -1.816406 7.519531 -1.035156 6.40625 -0.421875 C 5.289062 0.179688 4.28125 0.484375 3.375 0.484375 C 2.46875 0.484375 1.738281 0.195312 1.1875 -0.375 C 0.644531 -0.945312 0.375 -1.742188 0.375 -2.765625 C 0.375 -3.785156 0.625 -4.914062 1.125 -6.15625 C 1.625 -7.394531 2.269531 -8.488281 3.0625 -9.4375 C 3.851562 -10.382812 4.707031 -11.234375 5.625 -11.984375 C 7.539062 -13.523438 9.222656 -14.296875 10.671875 -14.296875 C 11.328125 -14.296875 11.816406 -14.140625 12.140625 -13.828125 C 12.265625 -13.722656 12.328125 -13.628906 12.328125 -13.546875 L 12.328125 -13.4375 C 12.484375 -13.457031 12.738281 -13.46875 13.09375 -13.46875 Z M 11.3125 -11.125 L 11.1875 -11.125 C 10.78125 -11.125 10.578125 -11.421875 10.578125 -12.015625 C 9.710938 -11.734375 8.804688 -11.238281 7.859375 -10.53125 C 6.921875 -9.820312 6.082031 -8.988281 5.34375 -8.03125 C 3.832031 -6.09375 3.066406 -4.457031 3.046875 -3.125 C 3.046875 -2.46875 3.285156 -2.140625 3.765625 -2.140625 C 4.242188 -2.140625 4.960938 -2.457031 5.921875 -3.09375 C 6.878906 -3.726562 7.828125 -4.632812 8.765625 -5.8125 C 9.703125 -6.988281 10.398438 -8.007812 10.859375 -8.875 C 11.328125 -9.75 11.5625 -10.34375 11.5625 -10.65625 C 11.5625 -10.96875 11.476562 -11.125 11.3125 -11.125 Z M 11.3125 -11.125 "/></g></g></g><g fill="#000000" fill-opacity="1"><g transform="translate(151.49377, 163.129166)"><g><path d="M 13.09375 -13.46875 C 13.445312 -13.46875 13.8125 -13.304688 14.1875 -12.984375 C 14.5625 -12.671875 14.75 -12.1875 14.75 -11.53125 C 14.75 -10.875 14.515625 -10.023438 14.046875 -8.984375 C 13.585938 -7.941406 12.957031 -6.878906 12.15625 -5.796875 C 11.351562 -4.722656 10.472656 -3.710938 9.515625 -2.765625 C 8.554688 -1.816406 7.519531 -1.035156 6.40625 -0.421875 C 5.289062 0.179688 4.28125 0.484375 3.375 0.484375 C 2.46875 0.484375 1.738281 0.195312 1.1875 -0.375 C 0.644531 -0.945312 0.375 -1.742188 0.375 -2.765625 C 0.375 -3.785156 0.625 -4.914062 1.125 -6.15625 C 1.625 -7.394531 2.269531 -8.488281 3.0625 -9.4375 C 3.851562 -10.382812 4.707031 -11.234375 5.625 -11.984375 C 7.539062 -13.523438 9.222656 -14.296875 10.671875 -14.296875 C 11.328125 -14.296875 11.816406 -14.140625 12.140625 -13.828125 C 12.265625 -13.722656 12.328125 -13.628906 12.328125 -13.546875 L 12.328125 -13.4375 C 12.484375 -13.457031 12.738281 -13.46875 13.09375 -13.46875 Z M 11.3125 -11.125 L 11.1875 -11.125 C 10.78125 -11.125 10.578125 -11.421875 10.578125 -12.015625 C 9.710938 -11.734375 8.804688 -11.238281 7.859375 -10.53125 C 6.921875 -9.820312 6.082031 -8.988281 5.34375 -8.03125 C 3.832031 -6.09375 3.066406 -4.457031 3.046875 -3.125 C 3.046875 -2.46875 3.285156 -2.140625 3.765625 -2.140625 C 4.242188 -2.140625 4.960938 -2.457031 5.921875 -3.09375 C 6.878906 -3.726562 7.828125 -4.632812 8.765625 -5.8125 C 9.703125 -6.988281 10.398438 -8.007812 10.859375 -8.875 C 11.328125 -9.75 11.5625 -10.34375 11.5625 -10.65625 C 11.5625 -10.96875 11.476562 -11.125 11.3125 -11.125 Z M 11.3125 -11.125 "/></g></g></g><g fill="#000000" fill-opacity="1"><g transform="translate(164.748343, 163.129166)"><g><path d="M 1.375 0.421875 L 0.25 0.171875 C -0.09375 0.140625 -0.375 -0.078125 -0.59375 -0.484375 C -0.65625 -0.585938 -0.695312 -0.648438 -0.71875 -0.671875 C -0.738281 -0.691406 -0.75 -0.71875 -0.75 -0.75 C -0.75 -0.789062 -0.734375 -0.84375 -0.703125 -0.90625 C -0.679688 -0.96875 -0.644531 -1.054688 -0.59375 -1.171875 C -0.550781 -1.285156 -0.515625 -1.398438 -0.484375 -1.515625 C -0.234375 -2.359375 1.832031 -6.296875 5.71875 -13.328125 C 9.613281 -20.359375 11.648438 -23.984375 11.828125 -24.203125 C 12.015625 -24.421875 12.148438 -24.582031 12.234375 -24.6875 C 12.328125 -24.789062 12.425781 -24.875 12.53125 -24.9375 C 12.644531 -25.007812 12.726562 -25.054688 12.78125 -25.078125 C 12.84375 -25.109375 12.953125 -25.148438 13.109375 -25.203125 C 13.265625 -25.253906 13.425781 -25.304688 13.59375 -25.359375 C 13.769531 -25.421875 13.953125 -25.5 14.140625 -25.59375 C 14.328125 -25.695312 14.457031 -25.769531 14.53125 -25.8125 C 14.601562 -25.851562 14.691406 -25.875 14.796875 -25.875 C 14.910156 -25.875 15.015625 -25.820312 15.109375 -25.71875 C 15.210938 -25.613281 15.265625 -25.476562 15.265625 -25.3125 L 15.265625 -25.1875 C 15.210938 -24.96875 13.679688 -22.175781 10.671875 -16.8125 C 7.660156 -11.445312 6.019531 -8.515625 5.75 -8.015625 C 6.664062 -8.378906 8.019531 -9.28125 9.8125 -10.71875 C 11.601562 -12.15625 12.503906 -13.109375 12.515625 -13.578125 C 12.535156 -14.046875 12.695312 -14.382812 13 -14.59375 C 13.3125 -14.8125 13.644531 -14.921875 14 -14.921875 C 14.363281 -14.921875 14.671875 -14.796875 14.921875 -14.546875 C 15.179688 -14.304688 15.300781 -13.910156 15.28125 -13.359375 C 15.269531 -12.816406 14.960938 -12.125 14.359375 -11.28125 C 13.765625 -10.4375 13.050781 -9.65625 12.21875 -8.9375 C 10.414062 -7.40625 8.910156 -6.394531 7.703125 -5.90625 C 8.660156 -3.320312 9.757812 -2.03125 11 -2.03125 C 11.664062 -2.125 12.488281 -2.671875 13.46875 -3.671875 C 13.832031 -4.035156 14.1875 -4.40625 14.53125 -4.78125 C 14.875 -5.15625 15.082031 -5.375 15.15625 -5.4375 C 15.226562 -5.507812 15.335938 -5.546875 15.484375 -5.546875 C 15.710938 -5.546875 15.847656 -5.375 15.890625 -5.03125 C 15.941406 -4.695312 15.96875 -4.34375 15.96875 -3.96875 C 15.96875 -3.601562 15.929688 -3.351562 15.859375 -3.21875 C 15.515625 -2.5625 14.765625 -1.753906 13.609375 -0.796875 C 12.453125 0.148438 11.359375 0.625 10.328125 0.625 C 9.578125 0.625 8.984375 0.476562 8.546875 0.1875 C 8.117188 -0.09375 7.78125 -0.328125 7.53125 -0.515625 C 7.28125 -0.703125 7.023438 -0.957031 6.765625 -1.28125 C 6.503906 -1.601562 6.289062 -1.867188 6.125 -2.078125 C 5.957031 -2.296875 5.765625 -2.59375 5.546875 -2.96875 C 5.328125 -3.34375 5.171875 -3.609375 5.078125 -3.765625 C 4.984375 -3.929688 4.84375 -4.191406 4.65625 -4.546875 C 4.476562 -4.910156 4.375 -5.109375 4.34375 -5.140625 C 4.132812 -4.703125 3.898438 -4.226562 3.640625 -3.71875 C 3.378906 -3.21875 3.140625 -2.75 2.921875 -2.3125 C 2.710938 -1.875 2.519531 -1.472656 2.34375 -1.109375 C 2.164062 -0.753906 2.019531 -0.457031 1.90625 -0.21875 C 1.800781 0.0078125 1.742188 0.128906 1.734375 0.140625 C 1.648438 0.328125 1.53125 0.421875 1.375 0.421875 Z M 1.375 0.421875 "/></g></g></g><g fill="#000000" fill-opacity="1"><g transform="translate(184.134602, 201.803134)"><g><path d="M 27.28125 -6.328125 L 27.421875 -5.671875 C 27.421875 -5.398438 27.273438 -5.070312 26.984375 -4.6875 C 26.234375 -3.707031 25.023438 -2.582031 23.359375 -1.3125 C 21.703125 -0.0390625 20.476562 0.59375 19.6875 0.59375 C 18.894531 0.59375 18.273438 0.363281 17.828125 -0.09375 C 17.390625 -0.550781 17.171875 -1.078125 17.171875 -1.671875 C 17.171875 -2.378906 17.910156 -3.945312 19.390625 -6.375 C 21.617188 -9.96875 24.46875 -14.171875 27.9375 -18.984375 C 27.195312 -18.234375 25.253906 -16.203125 22.109375 -12.890625 C 15.128906 -5.578125 11.050781 -1.4375 9.875 -0.46875 C 9.675781 -0.300781 9.390625 -0.21875 9.015625 -0.21875 C 8.648438 -0.21875 8.257812 -0.367188 7.84375 -0.671875 C 7.4375 -0.972656 7.234375 -1.316406 7.234375 -1.703125 L 7.234375 -1.78125 C 7.273438 -2.257812 8.375 -4.601562 10.53125 -8.8125 C 12.695312 -13.03125 14.507812 -16.390625 15.96875 -18.890625 C 13.8125 -16.503906 11.628906 -13.851562 9.421875 -10.9375 C 5.234375 -5.382812 2.164062 -0.65625 0.21875 3.25 C 0.0507812 3.613281 -0.15625 3.796875 -0.40625 3.796875 C -0.65625 3.796875 -1.023438 3.734375 -1.515625 3.609375 C -2.515625 3.335938 -3.015625 2.859375 -3.015625 2.171875 C -3.015625 1.765625 -2.175781 0.296875 -0.5 -2.234375 C 1.175781 -4.765625 3.125 -7.53125 5.34375 -10.53125 C 7.5625 -13.53125 9.859375 -16.414062 12.234375 -19.1875 C 15.515625 -23.03125 17.625 -24.953125 18.5625 -24.953125 C 18.707031 -24.953125 18.847656 -24.914062 18.984375 -24.84375 C 19.117188 -24.769531 19.203125 -24.734375 19.234375 -24.734375 C 19.273438 -24.734375 19.3125 -24.75 19.34375 -24.78125 C 19.488281 -24.957031 19.78125 -25.046875 20.21875 -25.046875 C 20.664062 -25.046875 21.097656 -24.957031 21.515625 -24.78125 C 21.929688 -24.613281 22.140625 -24.425781 22.140625 -24.21875 C 22.140625 -24.070312 21.566406 -22.976562 20.421875 -20.9375 C 16.597656 -14.15625 14.03125 -9.492188 12.71875 -6.953125 C 13.96875 -8.472656 15.757812 -10.488281 18.09375 -13 C 20.4375 -15.519531 22.894531 -18.03125 25.46875 -20.53125 C 28.8125 -23.769531 30.8125 -25.390625 31.46875 -25.390625 C 31.726562 -25.390625 32.054688 -25.332031 32.453125 -25.21875 C 33.160156 -25.019531 33.84375 -24.921875 34.5 -24.921875 C 34.675781 -24.878906 34.828125 -24.796875 34.953125 -24.671875 C 35.085938 -24.554688 35.15625 -24.4375 35.15625 -24.3125 C 35.15625 -24.1875 35.125 -24.082031 35.0625 -24 C 31.34375 -19.070312 28.207031 -14.722656 25.65625 -10.953125 C 23.113281 -7.179688 21.546875 -4.632812 20.953125 -3.3125 C 22.148438 -3.5625 23.941406 -4.992188 26.328125 -7.609375 C 26.421875 -7.742188 26.488281 -7.832031 26.53125 -7.875 C 26.582031 -7.925781 26.625 -7.972656 26.65625 -8.015625 C 26.851562 -8.242188 27.003906 -8.101562 27.109375 -7.59375 C 27.148438 -7.289062 27.179688 -7.078125 27.203125 -6.953125 C 27.222656 -6.835938 27.238281 -6.710938 27.25 -6.578125 C 27.269531 -6.453125 27.28125 -6.367188 27.28125 -6.328125 Z M 27.28125 -6.328125 "/></g></g></g><g fill="#000000" fill-opacity="1"><g transform="translate(211.246694, 201.803134)"><g><path d="M 14.140625 -13.015625 C 15.003906 -13.015625 15.4375 -12.71875 15.4375 -12.125 C 15.4375 -11.8125 15.363281 -11.578125 15.21875 -11.421875 C 15.070312 -11.273438 14.753906 -10.78125 14.265625 -9.9375 C 13.773438 -9.101562 13.234375 -8.03125 12.640625 -6.71875 C 12.054688 -5.414062 11.679688 -4.300781 11.515625 -3.375 C 11.484375 -3.257812 11.46875 -3.097656 11.46875 -2.890625 C 11.46875 -2.265625 11.632812 -1.953125 11.96875 -1.953125 C 12.3125 -1.953125 12.71875 -2.113281 13.1875 -2.4375 C 13.65625 -2.769531 14.070312 -3.117188 14.4375 -3.484375 C 14.8125 -3.859375 15.171875 -4.238281 15.515625 -4.625 C 15.859375 -5.007812 16.066406 -5.226562 16.140625 -5.28125 C 16.210938 -5.34375 16.316406 -5.375 16.453125 -5.375 C 16.671875 -5.375 16.800781 -5.207031 16.84375 -4.875 C 16.882812 -4.550781 16.90625 -4.210938 16.90625 -3.859375 C 16.90625 -3.503906 16.875 -3.257812 16.8125 -3.125 C 16.476562 -2.46875 15.75 -1.679688 14.625 -0.765625 C 13.5 0.140625 12.472656 0.59375 11.546875 0.59375 C 10.628906 0.59375 9.953125 0.316406 9.515625 -0.234375 C 9.085938 -0.796875 8.875 -1.414062 8.875 -2.09375 C 8.875 -2.78125 8.988281 -3.378906 9.21875 -3.890625 C 8.269531 -2.660156 7.179688 -1.613281 5.953125 -0.75 C 4.722656 0.101562 3.71875 0.53125 2.9375 0.53125 C 2.164062 0.53125 1.535156 0.296875 1.046875 -0.171875 C 0.421875 -0.753906 0.109375 -1.5625 0.109375 -2.59375 C 0.109375 -3.625 0.335938 -4.660156 0.796875 -5.703125 C 1.253906 -6.753906 1.859375 -7.710938 2.609375 -8.578125 C 3.367188 -9.441406 4.203125 -10.226562 5.109375 -10.9375 C 7.003906 -12.414062 8.75 -13.15625 10.34375 -13.15625 C 10.96875 -13.15625 11.472656 -13.050781 11.859375 -12.84375 C 12.242188 -12.644531 12.488281 -12.390625 12.59375 -12.078125 C 12.863281 -12.492188 13.09375 -12.753906 13.28125 -12.859375 C 13.476562 -12.960938 13.765625 -13.015625 14.140625 -13.015625 Z M 11.859375 -11.125 C 9.898438 -11.125 7.878906 -10.035156 5.796875 -7.859375 C 5.046875 -7.085938 4.359375 -6.15625 3.734375 -5.0625 C 3.117188 -3.976562 2.8125 -3.238281 2.8125 -2.84375 C 2.8125 -2.445312 2.925781 -2.25 3.15625 -2.25 C 3.46875 -2.25 4.351562 -2.878906 5.8125 -4.140625 C 7.28125 -5.398438 8.253906 -6.328125 8.734375 -6.921875 C 9.265625 -7.585938 10.304688 -8.988281 11.859375 -11.125 Z M 11.859375 -11.125 "/></g></g></g><g fill="#000000" fill-opacity="1"><g transform="translate(225.539668, 201.803134)"><g><path d="M 2.953125 -3.421875 L 2.9375 -3.15625 C 2.9375 -2.863281 3.039062 -2.613281 3.25 -2.40625 C 3.46875 -2.207031 3.671875 -2.109375 3.859375 -2.109375 C 5.222656 -2.109375 6.429688 -2.3125 7.484375 -2.71875 C 8.546875 -3.132812 9.078125 -3.546875 9.078125 -3.953125 C 9.078125 -4.148438 8.882812 -4.316406 8.5 -4.453125 C 8.125 -4.597656 7.476562 -4.773438 6.5625 -4.984375 C 5.65625 -5.203125 4.992188 -5.367188 4.578125 -5.484375 C 4.171875 -5.609375 3.847656 -5.722656 3.609375 -5.828125 C 3.367188 -5.929688 3.125 -6.070312 2.875 -6.25 C 2.34375 -6.625 2.078125 -7.1875 2.078125 -7.9375 C 2.078125 -8.6875 2.351562 -9.429688 2.90625 -10.171875 C 3.457031 -10.910156 4.148438 -11.539062 4.984375 -12.0625 C 5.816406 -12.59375 6.710938 -13.054688 7.671875 -13.453125 C 9.566406 -14.242188 11.160156 -14.640625 12.453125 -14.640625 C 13.722656 -14.640625 14.507812 -14.363281 14.8125 -13.8125 C 14.894531 -13.613281 14.9375 -13.394531 14.9375 -13.15625 L 14.9375 -13.046875 C 14.9375 -12.429688 14.804688 -11.953125 14.546875 -11.609375 C 14.296875 -11.273438 13.894531 -10.96875 13.34375 -10.6875 C 12.789062 -10.414062 12.347656 -10.28125 12.015625 -10.28125 C 11.691406 -10.28125 11.488281 -10.300781 11.40625 -10.34375 C 11.320312 -10.394531 11.25 -10.457031 11.1875 -10.53125 C 11.132812 -10.601562 11.0625 -10.65625 10.96875 -10.6875 C 10.882812 -10.726562 10.84375 -10.816406 10.84375 -10.953125 C 10.84375 -11.085938 10.898438 -11.222656 11.015625 -11.359375 C 11.128906 -11.503906 11.210938 -11.660156 11.265625 -11.828125 C 10.503906 -11.785156 9.710938 -11.609375 8.890625 -11.296875 C 8.066406 -10.984375 7.359375 -10.632812 6.765625 -10.25 C 6.179688 -9.863281 5.695312 -9.492188 5.3125 -9.140625 C 4.925781 -8.785156 4.734375 -8.523438 4.734375 -8.359375 C 4.734375 -8.191406 4.992188 -8.054688 5.515625 -7.953125 C 7.878906 -7.484375 9.429688 -7.078125 10.171875 -6.734375 C 10.921875 -6.390625 11.4375 -6 11.71875 -5.5625 C 12.007812 -5.132812 12.15625 -4.742188 12.15625 -4.390625 C 12.15625 -3.660156 11.863281 -2.96875 11.28125 -2.3125 C 10.695312 -1.664062 9.972656 -1.132812 9.109375 -0.71875 C 7.273438 0.1875 5.675781 0.640625 4.3125 0.640625 C 2.945312 0.640625 2.003906 0.429688 1.484375 0.015625 C 0.960938 -0.398438 0.703125 -0.894531 0.703125 -1.46875 C 0.703125 -2.039062 0.847656 -2.566406 1.140625 -3.046875 C 1.429688 -3.535156 1.804688 -3.78125 2.265625 -3.78125 C 2.722656 -3.78125 2.953125 -3.660156 2.953125 -3.421875 Z M 2.953125 -3.421875 "/></g></g></g><g fill="#000000" fill-opacity="1"><g transform="translate(238.444484, 201.803134)"><g><path d="M 12.859375 -22.078125 L 13.546875 -21.90625 C 13.648438 -21.90625 13.742188 -21.851562 13.828125 -21.75 C 13.910156 -21.644531 13.953125 -21.546875 13.953125 -21.453125 C 13.953125 -21.359375 13.832031 -21.113281 13.59375 -20.71875 C 13.351562 -20.320312 13.066406 -19.867188 12.734375 -19.359375 C 12.410156 -18.847656 12.238281 -18.570312 12.21875 -18.53125 C 13.101562 -18.59375 13.734375 -18.625 14.109375 -18.625 C 14.484375 -18.625 14.738281 -18.597656 14.875 -18.546875 C 15.007812 -18.492188 15.164062 -18.347656 15.34375 -18.109375 C 15.519531 -17.878906 15.679688 -17.703125 15.828125 -17.578125 C 15.984375 -17.460938 16.0625 -17.285156 16.0625 -17.046875 C 16.0625 -16.804688 15.914062 -16.601562 15.625 -16.4375 C 15.332031 -16.269531 15.019531 -16.171875 14.6875 -16.140625 C 12.03125 -15.878906 10.566406 -15.742188 10.296875 -15.734375 C 9.367188 -14.316406 8.070312 -12.109375 6.40625 -9.109375 C 4.75 -6.109375 3.867188 -4.234375 3.765625 -3.484375 C 3.722656 -3.140625 3.703125 -2.859375 3.703125 -2.640625 C 3.703125 -2.191406 3.9375 -1.96875 4.40625 -1.96875 C 4.875 -1.96875 5.390625 -2.144531 5.953125 -2.5 C 6.523438 -2.863281 7.054688 -3.257812 7.546875 -3.6875 C 8.816406 -4.820312 9.5 -5.390625 9.59375 -5.390625 C 9.894531 -5.390625 10.046875 -4.878906 10.046875 -3.859375 C 10.046875 -3.296875 9.785156 -2.789062 9.265625 -2.34375 C 8.117188 -1.351562 7.148438 -0.601562 6.359375 -0.09375 C 5.566406 0.40625 4.78125 0.65625 4 0.65625 C 3.820312 0.65625 3.660156 0.632812 3.515625 0.59375 C 2.597656 0.425781 1.925781 0.0976562 1.5 -0.390625 C 1.070312 -0.890625 0.859375 -1.5625 0.859375 -2.40625 C 0.867188 -3.257812 1.117188 -4.285156 1.609375 -5.484375 C 2.109375 -6.691406 2.738281 -7.976562 3.5 -9.34375 C 4.726562 -11.550781 5.960938 -13.628906 7.203125 -15.578125 L 6.546875 -15.484375 C 5.222656 -15.335938 4.453125 -15.265625 4.234375 -15.265625 L 4.078125 -15.265625 C 3.742188 -15.265625 3.421875 -15.328125 3.109375 -15.453125 C 2.804688 -15.585938 2.65625 -15.753906 2.65625 -15.953125 C 2.65625 -16.148438 2.738281 -16.335938 2.90625 -16.515625 C 3.070312 -16.703125 3.171875 -16.847656 3.203125 -16.953125 C 3.285156 -17.203125 3.585938 -17.476562 4.109375 -17.78125 C 4.628906 -18.09375 5.019531 -18.253906 5.28125 -18.265625 C 5.539062 -18.285156 5.789062 -18.300781 6.03125 -18.3125 C 6.28125 -18.320312 6.554688 -18.332031 6.859375 -18.34375 C 7.160156 -18.363281 7.394531 -18.378906 7.5625 -18.390625 L 9.09375 -18.453125 C 10.050781 -19.890625 10.710938 -20.8125 11.078125 -21.21875 C 11.441406 -21.632812 11.648438 -21.863281 11.703125 -21.90625 C 11.765625 -21.945312 11.878906 -21.96875 12.046875 -21.96875 Z M 12.859375 -22.078125 "/></g></g></g><g fill="#000000" fill-opacity="1"><g transform="translate(245.985142, 201.803134)"><g><path d="M 12.859375 -12.8125 C 12.859375 -12.0625 12.550781 -11.398438 11.9375 -10.828125 C 11.320312 -10.253906 10.628906 -9.96875 9.859375 -9.96875 C 9.597656 -9.96875 9.425781 -10.023438 9.34375 -10.140625 C 9.269531 -10.265625 9.234375 -10.425781 9.234375 -10.625 C 9.234375 -10.820312 9.253906 -11.007812 9.296875 -11.1875 C 8.890625 -11.050781 8.4375 -10.835938 7.9375 -10.546875 C 7.4375 -10.265625 6.816406 -9.84375 6.078125 -9.28125 C 5.347656 -8.726562 4.984375 -8.3125 4.984375 -8.03125 C 4.984375 -7.945312 5.117188 -7.90625 5.390625 -7.90625 C 5.660156 -7.90625 6.070312 -8 6.625 -8.1875 C 7.1875 -8.375 7.578125 -8.46875 7.796875 -8.46875 C 8.023438 -8.46875 8.175781 -8.457031 8.25 -8.4375 C 8.394531 -8.351562 8.550781 -8.175781 8.71875 -7.90625 C 8.894531 -7.632812 8.984375 -7.421875 8.984375 -7.265625 C 8.984375 -7.117188 8.832031 -6.914062 8.53125 -6.65625 C 8.238281 -6.40625 7.898438 -6.210938 7.515625 -6.078125 C 7.140625 -5.953125 6.890625 -5.859375 6.765625 -5.796875 C 4.359375 -4.441406 3.15625 -3.515625 3.15625 -3.015625 C 3.15625 -2.117188 3.914062 -1.671875 5.4375 -1.671875 C 6.40625 -1.671875 7.378906 -1.984375 8.359375 -2.609375 C 9.191406 -3.128906 9.941406 -3.660156 10.609375 -4.203125 C 11.285156 -4.742188 11.710938 -5.078125 11.890625 -5.203125 C 12.066406 -5.328125 12.195312 -5.390625 12.28125 -5.390625 C 12.582031 -5.390625 12.734375 -5.054688 12.734375 -4.390625 C 12.734375 -3.734375 12.691406 -3.300781 12.609375 -3.09375 C 12.523438 -2.882812 12.296875 -2.625 11.921875 -2.3125 C 9.484375 -0.320312 7.171875 0.671875 4.984375 0.671875 C 3.816406 0.671875 2.882812 0.507812 2.1875 0.1875 C 0.914062 -0.394531 0.28125 -1.285156 0.28125 -2.484375 C 0.28125 -4.054688 1.367188 -5.25 3.546875 -6.0625 C 3.109375 -6.257812 2.828125 -6.507812 2.703125 -6.8125 C 2.578125 -7.113281 2.515625 -7.597656 2.515625 -8.265625 C 2.515625 -8.929688 2.828125 -9.640625 3.453125 -10.390625 C 4.078125 -11.140625 4.835938 -11.753906 5.734375 -12.234375 C 7.742188 -13.316406 9.539062 -13.859375 11.125 -13.859375 C 11.5 -13.859375 11.878906 -13.765625 12.265625 -13.578125 C 12.660156 -13.398438 12.859375 -13.144531 12.859375 -12.8125 Z M 12.859375 -12.8125 "/></g></g></g><g fill="#000000" fill-opacity="1"><g transform="translate(257.12475, 201.803134)"><g><path d="M 6.671875 -9.34375 C 9.359375 -12.40625 11.648438 -13.9375 13.546875 -13.9375 C 14.015625 -13.9375 14.398438 -13.796875 14.703125 -13.515625 C 15.015625 -13.234375 15.171875 -12.867188 15.171875 -12.421875 C 15.171875 -11.972656 14.851562 -11.226562 14.21875 -10.1875 C 13.582031 -9.144531 12.992188 -8.265625 12.453125 -7.546875 C 12.171875 -7.171875 11.847656 -6.984375 11.484375 -6.984375 C 11.128906 -6.984375 10.847656 -7.113281 10.640625 -7.375 C 10.441406 -7.644531 10.34375 -7.957031 10.34375 -8.3125 C 10.34375 -9.101562 10.769531 -9.992188 11.625 -10.984375 L 11.578125 -11.015625 C 11.203125 -10.984375 10.269531 -10.238281 8.78125 -8.78125 C 7.289062 -7.332031 6.019531 -6.035156 4.96875 -4.890625 C 3.925781 -3.742188 2.796875 -2.347656 1.578125 -0.703125 C 1.222656 -0.210938 0.921875 0.03125 0.671875 0.03125 C 0.429688 0.03125 0.109375 -0.0390625 -0.296875 -0.1875 C -0.703125 -0.34375 -0.945312 -0.457031 -1.03125 -0.53125 C -1.125 -0.601562 -1.171875 -0.71875 -1.171875 -0.875 C -1.171875 -1.03125 -1.125 -1.210938 -1.03125 -1.421875 C -0.9375 -1.640625 -0.765625 -1.941406 -0.515625 -2.328125 C -0.273438 -2.710938 0.09375 -3.335938 0.59375 -4.203125 C 1.09375 -5.078125 1.863281 -6.394531 2.90625 -8.15625 C 3.957031 -9.914062 4.585938 -10.976562 4.796875 -11.34375 C 5.234375 -12.09375 5.585938 -12.640625 5.859375 -12.984375 C 6.367188 -13.640625 7.238281 -13.96875 8.46875 -13.96875 C 8.738281 -13.96875 8.875 -13.796875 8.875 -13.453125 C 8.875 -12.910156 8.378906 -11.898438 7.390625 -10.421875 Z M 6.671875 -9.34375 "/></g></g></g></svg>