<svg id="Calque_1" data-name="Calque 1" xmlns="http://www.w3.org/2000/svg" width="150" height="150" viewBox="0 0 150 150"><defs><style>.cls-1{fill:#00ecae}.cls-2{fill:#001d48}</style></defs><title>metre-5cols</title><g id="Calque_1-2" data-name="Calque 1-2"><path class="cls-1" d="M62.5 96.22a1.88 1.88 0 0 0-1.87 1.86v9.75h3.73v-9.75a1.88 1.88 0 0 0-1.86-1.86zm0 15.28zM36.68 93.57a1.86 1.86 0 0 0-1.86 1.86v8.51a32.25 32.25 0 0 0 3.69 1.54v-10a1.86 1.86 0 0 0-1.83-1.86zm51.64 17.93zm0-15.28a1.86 1.86 0 0 0-1.86 1.86v9.75h3.72v-9.75a1.87 1.87 0 0 0-1.86-1.86z"/><path class="cls-2" d="M127 73.06H83.92V55.7c0-9.89-12.17-16.28-31-16.28-17.38 0-31 8.21-31 18.69v34.74c0 10.47 13.63 18.68 31 18.68H127a1.86 1.86 0 0 0 1.86-1.86V74.93a1.86 1.86 0 0 0-1.85-1.87zM52.91 43.15c16.06 0 27.28 5.16 27.28 12.55 0 2.9-8 8.34-19.11 8.9V49.71a1.86 1.86 0 0 0-1.86-1.86c-12.27 0-24.7 3.53-24.7 10.26v10.94c-5.43-2.76-8.89-6.68-8.89-10.94 0-8.11 12.49-14.96 27.28-14.96zm6.31 25.24c8.38 0 16.45-2.66 21-6.37v11H52.91a44.13 44.13 0 0 1-14.67-2.42v-6.81c4.61 3 12.82 4.57 21 4.57zm-21-10.28c0-2.53 7.38-6.15 19.11-6.51v13c-11.7-.34-19.08-3.96-19.08-6.49zm86.93 49.72H77.27V86.51a1.87 1.87 0 0 0-3.73 0v21.32H51.45V86.58a1.87 1.87 0 0 0-3.73 0v21a41.58 41.58 0 0 1-9.21-2.11 33.48 33.48 0 0 1-3.72-1.54c-5.58-2.75-9.16-6.73-9.16-11.09V67.12c5.2 5.81 15.36 9.67 27.28 9.67h72.27zm-15.88-5.4c3.85 0 6.84-2.58 7.83-6.72l.14-.61-3.24-.77-.15.59c-.73 2.74-2.34 4.25-4.52 4.25-1.94 0-3.44-1.21-4.23-3.32h5.19l.61-2.85h-6.39v-1.17h6.71L112 89h-7c.75-2.25 2.28-3.53 4.28-3.53 2.22 0 3.84 1.56 4.44 4.29l.13.6 3.37-.72-.12-.64c-1-4.18-3.94-6.77-7.8-6.77s-6.79 2.57-7.83 6.75h-3.26v2.82h2.9V93h-2.9v2.83h3.32c1 4 4 6.54 7.77 6.54z"/></g></svg>