<?xml version="1.0" encoding="UTF-8"?>
<svg xmlns="http://www.w3.org/2000/svg" id="Calque_1" data-name="Calque 1" width="150" height="150" viewBox="0 0 150 150">
  <g id="Calque_1-2" data-name="Calque 1-2">
    <path d="M112.06,89.83,96.82,75l-.16-.13-.24-.16L78,65.4a1.61,1.61,0,0,0-1.39-.05l-4,1.7a2.94,2.94,0,0,0-1.49,1.42l-2.35,4.79A4.36,4.36,0,0,1,61,69.38a.54.54,0,0,1,.07-.13l4-7.91c.88-.48,2.93-1.57,5.23-2.78a1.43,1.43,0,0,0,.3-.16l1.4-.72c4-2.06,6.68-2.2,11-.59,4.11,1.54,13,5,13.06,5a1.71,1.71,0,0,0,1.18,0L106,58.91l-1.32-3-8,2.89c-2-.78-9-3.46-12.53-4.77-5.19-1.93-8.9-1.76-13.69.73l-.67.34A10.32,10.32,0,0,0,58,55.69c-4.11,2.88-6.45,4.27-7.44,4.83L46,58.69l-1.3,3,5.31,2.15a1.94,1.94,0,0,0,.58.12,1.69,1.69,0,0,0,.7-.15,70.56,70.56,0,0,0,8.54-5.45A7.33,7.33,0,0,1,66.16,57l-3.11,1.67-.21.13a1.49,1.49,0,0,0-.38.41,1.62,1.62,0,0,0-.1.18l-4.17,8.36a7.65,7.65,0,1,0,13.61,7L74.08,70l3.15-1.35,17.5,8.88,15.07,14.7a5.58,5.58,0,0,1-3.35,3.12A6.33,6.33,0,0,1,100.89,94L92,85.29a1.64,1.64,0,0,0-2.3,2.34h0l9,8.76,2.12,2.08a5.53,5.53,0,0,1-3.35,3.12,6.31,6.31,0,0,1-5.55-1.35l-6.77-6.63A1.67,1.67,0,0,0,82.82,96h0l6.82,6.69.06.06L91,104a5.39,5.39,0,0,1-3.29,3.13,6.14,6.14,0,0,1-5.42-1.37L77.6,101.2a1.64,1.64,0,1,0-2.41,2.23l.11.11L81,109.1a5,5,0,0,1-2.85,2.72,6.83,6.83,0,0,1-4.83-.37l.14-.23a6.14,6.14,0,0,0-5.39-9.31,6.17,6.17,0,0,0-9.39-6.37,6.13,6.13,0,0,0-2.45-2.76,6.21,6.21,0,0,0-6.83.31,6.12,6.12,0,0,0-8.16-2.89h0l-.32.16-7.31-3.12-1.32,3,6.12,2.59a6.18,6.18,0,0,0,5.42,9.1h.23a6,6,0,0,0,.12,2.39,6.17,6.17,0,0,0,6,4.69h.41a6.1,6.1,0,0,0,9.93,5.33,6.17,6.17,0,0,0,10.79.38l.21-.36a11.23,11.23,0,0,0,4.73,1.1,8.64,8.64,0,0,0,2.94-.49A8.33,8.33,0,0,0,84,110.36a8.19,8.19,0,0,0,4.55,0A8.83,8.83,0,0,0,94.14,105a8.46,8.46,0,0,0,4.21-.14,9.16,9.16,0,0,0,5.87-6,8.23,8.23,0,0,0,3.12-.31A8.9,8.9,0,0,0,113,93.11l6.62-3-1.31-3ZM46.35,97.24a2.9,2.9,0,0,1-5-2.94h0a2.81,2.81,0,0,1,.61-.72,1.71,1.71,0,0,1,.26-.21,3.07,3.07,0,0,1,.92-.42,2.89,2.89,0,0,1,3.17,4.29Zm6.32,7a2.89,2.89,0,0,1-3.94,1l-.06,0a2.93,2.93,0,0,1-1-3.94L49.13,99l1.43-2.38A2.86,2.86,0,0,1,53,95.2a2.67,2.67,0,0,1,1.48.41,2.87,2.87,0,0,1,1,3.93h0ZM59.18,111a2.89,2.89,0,0,1-3.94,1l-.06,0a2.89,2.89,0,0,1-1-4l0,0,1.2-2,2.91-4.78,1.17-2a2.89,2.89,0,0,1,4.94,3Zm11.44-1.45L68.55,113a2.88,2.88,0,0,1-5.13-2.62c.07-.12.14-.24.22-.36l1-1.71,1-1.72a2.86,2.86,0,0,1,1.76-1.32,2.74,2.74,0,0,1,.7-.09A2.89,2.89,0,0,1,71,108.09a2.84,2.84,0,0,1-.41,1.47Z" fill="#001d48"></path>
    <path d="M139.87,83.72,123.13,45.4a1.64,1.64,0,0,0-2.16-.86h0l-16.3,7.11a1.66,1.66,0,0,0-.85,2.17l.9,2.08,1.32,3L118.28,87l1.32,3,1,2.14a1.65,1.65,0,0,0,1.51,1,1.85,1.85,0,0,0,.66-.13L139,85.91a1.72,1.72,0,0,0,.89-.91A1.67,1.67,0,0,0,139.87,83.72Zm-17,5.63-1-2.19L107.49,54l13.29-5.8,15.41,35.33Zm2.64-8a1.64,1.64,0,0,0,3-1.31l-3.11-7.12a1.64,1.64,0,0,0-3.05,1.2.61.61,0,0,0,.05.12ZM47.35,51.66,31,44.55a1.62,1.62,0,0,0-2.15.82v0L12.14,83.72a1.71,1.71,0,0,0,0,1.26,1.67,1.67,0,0,0,.87.9L29.3,93a1.84,1.84,0,0,0,.65.13,1.64,1.64,0,0,0,1.51-1l.83-1.9,1.32-3L44.76,61.7l1.31-3,2.12-4.87a1.72,1.72,0,0,0-.84-2.17ZM29.92,87.49l-.81,1.86-13.29-5.8L31.23,48.22,44.52,54ZM28.74,72.07a1.63,1.63,0,0,0-2.16.84h0L23.46,80a1.65,1.65,0,0,0,3,1.33l3.13-7.14A1.65,1.65,0,0,0,28.72,72Z" fill="#00ecae"></path>
  </g>
</svg>
